<?xml version="1.0" encoding="iso-8859-1"?>
<!-- Generator: Adobe Illustrator 16.0.0, SVG Export Plug-In . SVG Version: 6.00 Build 0)  -->
<!DOCTYPE svg PUBLIC "-//W3C//DTD SVG 1.1//EN" "http://www.w3.org/Graphics/SVG/1.1/DTD/svg11.dtd">
<svg version="1.1" id="Capa_1" xmlns="http://www.w3.org/2000/svg" xmlns:xlink="http://www.w3.org/1999/xlink" x="0px" y="0px"
	 width="916.199px" height="916.199px" viewBox="0 0 916.199 916.199" style="enable-background:new 0 0 916.199 916.199;"
	 xml:space="preserve">
<g>
	<g>
		<path d="M916.199,877.5V525c0-14.4-8.799-27.301-22.199-32.602L559.6,361.5v-322.8c0-19.3-15.699-35-35-35H35
			c-19.3,0-35,15.7-35,35V877.5c0,19.299,15.7,35,35,35h162.8v-70.801c0-45.301,36.7-82.1,82.1-82.1l0,0
			c45.3,0,82.101,36.699,82.101,82.1V912.5h197.8h321.6C900.5,912.5,916.199,896.898,916.199,877.5z M214.6,688.199H107.7V596.5
			c0-29.5,23.9-53.4,53.4-53.4s53.4,23.9,53.4,53.4v91.699H214.6z M214.6,468.199H107.7v-91.7c0-29.5,23.9-53.4,53.4-53.4
			s53.4,23.9,53.4,53.4v91.7H214.6z M214.6,248.099H107.7v-91.7c0-29.5,23.9-53.4,53.4-53.4s53.4,23.9,53.4,53.4v91.7H214.6z
			 M451.9,688.199H345V596.5c0-29.5,23.899-53.4,53.399-53.4s53.4,23.9,53.4,53.4v91.699H451.9z M451.9,468.199H345v-91.7
			c0-29.5,23.899-53.4,53.399-53.4s53.4,23.9,53.4,53.4v91.7H451.9z M451.9,248.099H345v-91.7c0-29.5,23.899-53.4,53.399-53.4
			s53.4,23.9,53.4,53.4v91.7H451.9z M835.6,738.799H640.301V486.1L835.6,562.6V738.799z"/>
		<path d="M600.1,3.699v267.1h267.1c19.301,0,35-15.7,35-35v-197.1c0-19.3-15.699-35-35-35H600.1z M823.6,209.799c0,11-9,20-20,20
			H798.9c-11,0-20-9-20-20v-55.1h-58v55.1c0,11-9,20-20,20h-4.701c-11,0-20-9-20-20v-141.8c0-11,9-20,20-20h4.701c11,0,20,9,20,20
			v47.6h58v-47.6c0-11,9-20,20-20h4.699c11,0,20,9,20,20V209.799z"/>
	</g>
</g>
<g>
</g>
<g>
</g>
<g>
</g>
<g>
</g>
<g>
</g>
<g>
</g>
<g>
</g>
<g>
</g>
<g>
</g>
<g>
</g>
<g>
</g>
<g>
</g>
<g>
</g>
<g>
</g>
<g>
</g>
</svg>
