<?xml version="1.0" encoding="iso-8859-1"?>
<!-- Generator: Adobe Illustrator 16.0.0, SVG Export Plug-In . SVG Version: 6.00 Build 0)  -->
<!DOCTYPE svg PUBLIC "-//W3C//DTD SVG 1.1//EN" "http://www.w3.org/Graphics/SVG/1.1/DTD/svg11.dtd">
<svg version="1.1" id="Capa_1" xmlns="http://www.w3.org/2000/svg" xmlns:xlink="http://www.w3.org/1999/xlink" x="0px" y="0px"
	 width="32px" height="32px" viewBox="0 0 32 32" style="enable-background:new 0 0 32 32;" xml:space="preserve">
<g>
	<g>
		<path d="M32,16.446v-0.86l-5.738-0.384v-1.591l-6.232-7.177l-5.647,6.316l-13.48,1.273v11.429l5.01,0.483v-4.608l2.393,0.053
			v4.788l5.501,0.53l17.736-1.728v-8.262l-5.289-0.289l0.017-0.287L32,16.446z M4.063,20.081l-2.035-0.002v-2.014l2.035-0.07V20.081
			z M2.002,14.771l2.033-0.188v2.085l-2.033,0.116V14.771z M1.988,21.392L4.02,21.44v2.084l-2.032-0.119V21.392z M5.922,14.371
			l2.328-0.216v2.233l-2.328,0.135V14.371z M8.281,20.045h-2.33v-2.152l2.33-0.082V20.045z M25.105,20.049l-1.84,0.001v-2.141
			l1.84,0.065V20.049z M25.123,21.321v2.073l-1.838,0.106v-2.139L25.123,21.321z M25.13,16.684l-1.837-0.118v-2.14l1.837,0.186
			V16.684z M19.375,21.448l2.083-0.045v2.205l-2.083,0.12V21.448z M19.354,20.05v-2.28l2.084,0.074v2.206H19.354z M19.383,16.311
			v-2.28l2.083,0.21v2.206L19.383,16.311z M15.262,21.54l2.357-0.053v2.344l-2.357,0.138V21.54z M17.578,20.051h-2.361V17.62
			l2.361,0.086V20.051z M15.251,13.615l2.358,0.238v2.343l-2.358-0.152V13.615z M26.584,21.288l1.643-0.035v1.961l-1.643,0.096
			V21.288z M26.566,20.049v-2.021l1.645,0.06v1.962L26.566,20.049L26.566,20.049z M12.682,20.032l-2.658,0.002v-2.297l2.658-0.094
			V20.032z M12.626,21.591v2.388l-2.654-0.155V21.53L12.626,21.591z M9.99,13.982l2.655-0.247v2.389L9.99,16.277V13.982z
			 M30.949,23.056l-1.48,0.086v-1.917l1.48-0.032V23.056z M30.936,20.048l-1.481,0.001v-1.918l1.481,0.054V20.048z"/>
		<polygon points="20.031,6 26.527,13.507 27.568,13.513 20.363,5.302 4.151,8.854 0,12.86 0,13.82 14.241,12.475 		"/>
	</g>
</g>
<g>
</g>
<g>
</g>
<g>
</g>
<g>
</g>
<g>
</g>
<g>
</g>
<g>
</g>
<g>
</g>
<g>
</g>
<g>
</g>
<g>
</g>
<g>
</g>
<g>
</g>
<g>
</g>
<g>
</g>
</svg>
