<?xml version="1.0" encoding="iso-8859-1"?>
<!-- Generator: Adobe Illustrator 16.0.0, SVG Export Plug-In . SVG Version: 6.00 Build 0)  -->
<!DOCTYPE svg PUBLIC "-//W3C//DTD SVG 1.1//EN" "http://www.w3.org/Graphics/SVG/1.1/DTD/svg11.dtd">
<svg version="1.1" id="Capa_1" xmlns="http://www.w3.org/2000/svg" xmlns:xlink="http://www.w3.org/1999/xlink" x="0px" y="0px"
	 width="470.977px" height="470.977px" viewBox="0 0 470.977 470.977" style="enable-background:new 0 0 470.977 470.977;"
	 xml:space="preserve">
<g>
	<path d="M470.977,211.704v-53.241h-41.971V66.67l-29.691-41.192l-29.693,41.191v91.793h-49.832V66.67l-29.693-41.192
		l-29.691,41.191v91.793h-49.833V66.67L180.88,25.479l-29.692,41.191v91.793h-49.833V66.67L71.662,25.479L41.97,66.67v91.793H0
		v53.241h41.97v143.351H0v53.24h41.97v37.203h59.384v-37.203h49.833v37.203h59.384v-37.203h49.833v37.203h59.383v-37.203h49.834
		v37.203h59.383v-37.203h41.971v-53.24h-41.971V211.704H470.977z M101.354,355.055V211.704h49.833v143.351H101.354L101.354,355.055z
		 M210.571,355.055V211.704h49.833v143.351H210.571L210.571,355.055z M369.621,355.055h-49.832V211.704h49.832V355.055z"/>
</g>
<g>
</g>
<g>
</g>
<g>
</g>
<g>
</g>
<g>
</g>
<g>
</g>
<g>
</g>
<g>
</g>
<g>
</g>
<g>
</g>
<g>
</g>
<g>
</g>
<g>
</g>
<g>
</g>
<g>
</g>
</svg>
