<?xml version="1.0" encoding="utf-8"?>
<!-- Generator: Adobe Illustrator 16.0.0, SVG Export Plug-In . SVG Version: 6.00 Build 0)  -->
<!DOCTYPE svg PUBLIC "-//W3C//DTD SVG 1.1//EN" "http://www.w3.org/Graphics/SVG/1.1/DTD/svg11.dtd">
<svg version="1.1" id="logo" xmlns="http://www.w3.org/2000/svg" xmlns:xlink="http://www.w3.org/1999/xlink" x="0px" y="0px"
	 width="488px" height="162px" viewBox="0 0 488 162" enable-background="new 0 0 488 162" xml:space="preserve">
<g>
	<polygon fill="#808285" points="100.025,75.751 128.869,75.751 128.869,104.744 	"/>
	<polygon fill="#E6E7E8" points="157.789,46.905 157.789,75.751 128.796,75.751 	"/>
	<polygon fill="#BCBEC0" points="99.876,46.905 99.876,75.751 128.869,75.751 	"/>
	<polygon fill="#6D6E71" points="128.869,104.597 128.869,75.751 157.865,75.751 	"/>
	<polygon fill="#4CB748" points="157.865,90.173 157.865,104.721 143.241,104.721 	"/>
</g>
<path fill="#808285" d="M180.84,104.537h-11.938V46.941h11.938V104.537z"/>
<path fill="#808285" d="M191.877,93.354l28.651-36.202h-28.651V46.953h43.578v9.651L205.604,94.39h29.851v10.159h-43.578V93.354z"/>
<path fill="#808285" d="M289.186,53.088c1.76,2.449,2.641,5.379,2.641,8.792c0,3.517-0.889,6.343-2.664,8.479
	c-0.992,1.198-2.455,2.292-4.387,3.282c2.936,1.068,5.15,2.761,6.643,5.08c1.494,2.319,2.24,5.132,2.24,8.44
	c0,3.413-0.854,6.474-2.559,9.183c-1.088,1.797-2.445,3.309-4.074,4.533c-1.836,1.407-4.002,2.371-6.496,2.892
	c-2.496,0.521-5.205,0.781-8.127,0.781h-25.91V46.953h27.789C281.295,47.058,286.262,49.103,289.186,53.088z M257.961,56.956v12.699
	h13.977c2.498,0,4.525-0.475,6.082-1.426c1.557-0.95,2.336-2.637,2.336-5.06c0-2.683-1.029-4.454-3.088-5.314
	c-1.777-0.599-4.043-0.899-6.797-0.899H257.961z M257.961,79.189v15.356h13.963c2.492,0,4.434-0.338,5.822-1.016
	c2.52-1.25,3.779-3.646,3.779-7.189c0-2.996-1.221-5.054-3.664-6.174c-1.361-0.625-3.277-0.951-5.746-0.977H257.961z"/>
<path fill="#808285" d="M343.592,98.187c-4.104,4.233-10.039,6.35-17.803,6.35c-7.768,0-13.701-2.117-17.805-6.35
	c-5.506-5.193-8.258-12.676-8.258-22.447c0-9.969,2.752-17.451,8.258-22.448c4.104-4.233,10.037-6.35,17.805-6.35
	c7.764,0,13.699,2.117,17.803,6.35c5.48,4.998,8.221,12.479,8.221,22.448C351.812,85.511,349.072,92.994,343.592,98.187z
	 M336.496,89.916c2.643-3.323,3.965-8.049,3.965-14.177c0-6.104-1.322-10.824-3.965-14.159c-2.641-3.335-6.211-5.003-10.707-5.003
	c-4.498,0-8.086,1.662-10.766,4.984c-2.678,3.323-4.018,8.049-4.018,14.178c0,6.128,1.34,10.854,4.018,14.177
	c2.68,3.323,6.268,4.984,10.766,4.984C330.285,94.9,333.855,93.239,336.496,89.916z"/>
<path fill="#808285" d="M400.203,46.941V57.14h-17.205v47.397h-12.094V57.14h-17.283V46.941H400.203z"/>
</svg>
